<svg width="35" height="33" viewBox="0 0 35 33" fill="none" xmlns="http://www.w3.org/2000/svg">
<path fill-rule="evenodd" clip-rule="evenodd" d="M4.99771 9.55122C4.99799 7.90444 5.34862 6.28572 6.01557 4.85213C6.68252 3.41855 7.64314 2.21878 8.80421 1.36927C9.96528 0.519753 11.2874 0.0493387 12.6422 0.0036743C13.997 -0.0419901 15.3385 0.338646 16.5365 1.10865C17.7346 1.87865 18.7485 3.01186 19.4798 4.39832C20.2111 5.78477 20.6351 7.37739 20.7105 9.02161C20.7859 10.6658 20.5102 12.3058 19.9102 13.7824C19.3102 15.259 18.4063 16.5221 17.2861 17.4491C19.6984 18.5242 21.7908 20.4518 23.2939 22.9839C24.797 25.516 25.6421 28.5367 25.7204 31.6573C25.7246 31.8284 25.701 31.9988 25.6511 32.1588C25.6011 32.3189 25.5256 32.4653 25.4291 32.5899C25.234 32.8416 24.9647 32.9888 24.6804 32.9991C24.396 33.0095 24.1199 32.8822 23.9128 32.6452C23.7057 32.4082 23.5846 32.081 23.576 31.7355C23.4909 28.351 22.3245 25.1397 20.3241 22.7823C18.3236 20.4248 15.6463 19.1063 12.8595 19.1063C10.0727 19.1063 7.39533 20.4248 5.39488 22.7823C3.39442 25.1397 2.22804 28.351 2.14292 31.7355C2.1286 32.0757 2.00522 32.3955 1.79919 32.6264C1.59317 32.8574 1.3209 32.9811 1.0407 32.9711C0.760502 32.9611 0.49467 32.8182 0.300151 32.573C0.105632 32.3277 -0.00210129 31.9997 3.10608e-05 31.6591C0.0780145 28.5382 0.922953 25.5171 2.42609 22.9846C3.92922 20.4522 6.02175 18.5243 8.43433 17.4491C7.37462 16.5733 6.50742 15.3956 5.90839 14.019C5.30936 12.6423 4.9967 11.1084 4.99771 9.55122ZM12.8602 2.60343C11.3436 2.60343 9.8892 3.33543 8.81684 4.63839C7.74447 5.94135 7.14202 7.70855 7.14202 9.55122C7.14202 11.3939 7.74447 13.1611 8.81684 14.464C9.8892 15.767 11.3436 16.499 12.8602 16.499C14.3767 16.499 15.8312 15.767 16.9035 14.464C17.9759 13.1611 18.5784 11.3939 18.5784 9.55122C18.5784 7.70855 17.9759 5.94135 16.9035 4.63839C15.8312 3.33543 14.3767 2.60343 12.8602 2.60343Z" fill="black"/>
<path d="M24.7109 9.55122C24.4993 9.55122 24.2935 9.56859 24.0905 9.60333C23.9488 9.63416 23.8034 9.63 23.663 9.59108C23.5226 9.55216 23.3901 9.47929 23.2734 9.37681C23.1567 9.27433 23.0582 9.14434 22.9838 8.9946C22.9093 8.84486 22.8605 8.67843 22.8401 8.50524C22.8198 8.33206 22.8283 8.15567 22.8653 7.98659C22.9022 7.81751 22.9669 7.65921 23.0553 7.52112C23.1437 7.38304 23.2541 7.26801 23.3798 7.1829C23.5056 7.09778 23.6442 7.04432 23.7874 7.0257C25.2092 6.77593 26.659 7.10768 27.9086 7.96873C29.1582 8.82978 30.1367 10.1713 30.6901 11.782C31.2435 13.3928 31.3404 15.1814 30.9655 16.8664C30.5906 18.5514 29.7652 20.0372 28.6193 21.0898C30.3038 22.0062 31.7341 23.4954 32.7376 25.3776C33.7411 27.2599 34.2749 29.4547 34.2745 31.6973C34.2745 32.0428 34.1616 32.3741 33.9605 32.6184C33.7594 32.8628 33.4867 33 33.2024 33C32.918 33 32.6453 32.8628 32.4443 32.6184C32.2432 32.3741 32.1302 32.0428 32.1302 31.6973C32.1301 29.7591 31.6161 27.8726 30.6644 26.3171C29.7128 24.7616 28.3741 23.6199 26.8466 23.0612L26.0833 22.7833V19.8722L26.6694 19.5091C27.5382 18.9744 28.2333 18.0995 28.6426 17.0257C29.0518 15.9519 29.1513 14.7419 28.9249 13.5909C28.6986 12.44 28.1596 11.4153 27.395 10.6824C26.6304 9.9494 25.6848 9.55091 24.7109 9.55122Z" fill="black"/>
</svg>
