<svg width="45" height="35" viewBox="0 0 45 35" fill="none" xmlns="http://www.w3.org/2000/svg">
<path d="M42.8084 17.1281C41.1811 13.8006 38.356 10.9229 34.6823 8.85072C31.0086 6.77858 26.6473 5.60281 22.1375 5.46875C17.6278 5.60281 13.2665 6.77858 9.59281 8.85072C5.91912 10.9229 3.09403 13.8006 1.4667 17.1281C1.3568 17.3684 1.3568 17.6316 1.4667 17.8719C3.09403 21.1994 5.91912 24.0771 9.59281 26.1493C13.2665 28.2214 17.6278 29.3972 22.1375 29.5312C26.6473 29.3972 31.0086 28.2214 34.6823 26.1493C38.356 24.0771 41.1811 21.1994 42.8084 17.8719C42.9183 17.6316 42.9183 17.3684 42.8084 17.1281ZM22.1375 27.3438C14.8045 27.3438 7.05641 23.0453 4.24772 17.5C7.05641 11.9547 14.8045 7.65625 22.1375 7.65625C29.4706 7.65625 37.2187 11.9547 40.0274 17.5C37.2187 23.0453 29.4706 27.3438 22.1375 27.3438Z" fill="black"/>
<path d="M22.1375 10.9375C20.4956 10.9375 18.8906 11.3224 17.5254 12.0435C16.1602 12.7646 15.0962 13.7895 14.4679 14.9886C13.8395 16.1878 13.6751 17.5073 13.9955 18.7803C14.3158 20.0533 15.1064 21.2226 16.2674 22.1404C17.4284 23.0582 18.9076 23.6832 20.5179 23.9364C22.1283 24.1896 23.7974 24.0597 25.3143 23.563C26.8313 23.0663 28.1278 22.2251 29.04 21.1459C29.9521 20.0667 30.439 18.7979 30.439 17.5C30.439 15.7595 29.5644 14.0903 28.0076 12.8596C26.4507 11.6289 24.3392 10.9375 22.1375 10.9375ZM22.1375 21.875C21.0429 21.875 19.9729 21.6184 19.0628 21.1377C18.1526 20.6569 17.4433 19.9737 17.0244 19.1742C16.6055 18.3748 16.4959 17.4951 16.7095 16.6465C16.923 15.7978 17.4501 15.0183 18.2241 14.4064C18.9981 13.7946 19.9842 13.3779 21.0578 13.2091C22.1313 13.0403 23.2441 13.1269 24.2554 13.458C25.2667 13.7892 26.131 14.3499 26.7391 15.0694C27.3473 15.7888 27.6718 16.6347 27.6718 17.5C27.6718 18.6603 27.0888 19.7731 26.0509 20.5936C25.013 21.4141 23.6053 21.875 22.1375 21.875Z" fill="black"/>
</svg>
